<svg width="183" height="30" viewBox="0 0 183 30" fill="none" xmlns="http://www.w3.org/2000/svg">
<g clip-path="url(#clip0_8383_67996)">
<path d="M182.998 0H84.867V30H182.998V0Z" fill="white"/>
<path d="M104.319 6.73517C104.389 6.72488 104.46 6.73154 104.527 6.75464C104.594 6.77773 104.654 6.81662 104.704 6.86823C104.754 6.91984 104.791 6.98275 104.814 7.05199C104.836 7.12122 104.842 7.19488 104.832 7.26714V9.64151C104.832 10.0133 104.66 10.1981 104.319 10.1981H93.9224C93.4161 10.1873 92.9104 10.2404 92.4164 10.3563C92.0586 10.4377 91.7298 10.6212 91.4673 10.8862C91.2169 11.1696 91.0439 11.517 90.966 11.8926C90.853 12.4169 90.8018 12.9535 90.8134 13.4906V16.931C90.8022 17.4721 90.8534 18.0127 90.966 18.5413C91.0408 18.9241 91.214 19.279 91.4673 19.5682C91.7285 19.8343 92.0568 20.0187 92.4145 20.1002C92.9084 20.2161 93.4141 20.2692 93.9204 20.2584H104.319C104.389 20.2481 104.46 20.2548 104.527 20.2778C104.594 20.3009 104.654 20.3398 104.704 20.3914C104.754 20.443 104.791 20.506 104.814 20.5752C104.836 20.6444 104.842 20.7181 104.832 20.7903V23.1647C104.842 23.237 104.836 23.3106 104.814 23.3799C104.791 23.4491 104.754 23.512 104.704 23.5636C104.654 23.6152 104.594 23.6541 104.527 23.6772C104.46 23.7003 104.389 23.707 104.319 23.6967H93.7817C92.7666 23.7166 91.7532 23.6028 90.7659 23.3578C90.0145 23.1719 89.3202 22.7934 88.7467 22.2569C88.2021 21.7115 87.8069 21.0262 87.6014 20.2707C87.3405 19.3052 87.2183 18.3052 87.2388 17.3027V13.1291C87.2178 12.1307 87.3401 11.1346 87.6014 10.1735C87.8089 9.42249 88.204 8.74159 88.7467 8.19963C89.3213 7.66217 90.0148 7.27981 90.7659 7.08639C91.7519 6.83266 92.7659 6.71457 93.7817 6.73517H104.319Z" fill="#191A1F"/>
<path d="M13.2482 6.73535C15.0395 6.73535 16.3241 7.15504 17.1022 7.99442C17.8803 8.8338 18.2699 10.0771 18.2713 11.7244V13.1047C18.2713 14.4931 17.9985 15.5886 17.4529 16.391C16.9073 17.1934 16.0196 17.713 14.7898 17.9499L18.7845 23.0848C18.825 23.1342 18.8528 23.1935 18.8653 23.2571C18.8778 23.3206 18.8745 23.3864 18.8558 23.4483C18.8241 23.6106 18.6993 23.6907 18.4813 23.6907H15.4675C15.3239 23.7019 15.1799 23.6773 15.0474 23.6188C14.9543 23.5555 14.8747 23.473 14.8136 23.3765L11.1221 18.3361H3.56667V23.1567C3.5766 23.2289 3.57017 23.3026 3.54789 23.3718C3.52561 23.4411 3.48809 23.504 3.4383 23.5556C3.38851 23.6072 3.32782 23.6461 3.26103 23.6692C3.19424 23.6923 3.12318 23.6989 3.05347 23.6887H0.536982C0.178334 23.6887 0 23.512 0 23.1567V7.46245C0 6.97772 0.233815 6.73535 0.701445 6.73535H13.2482ZM3.56667 15.3825H12.523C13.3156 15.3825 13.8763 15.2045 14.2053 14.8485C14.5342 14.4924 14.698 13.9516 14.6967 13.2258V12.1989C14.6967 11.4718 14.5329 10.9309 14.2053 10.5762C13.8777 10.2216 13.3169 10.0436 12.523 10.0422H3.87776C3.67962 10.0422 3.5746 10.1408 3.5746 10.3339L3.56667 15.3825Z" fill="white"/>
<path d="M33.7288 6.73472C34.7479 6.71483 35.765 6.83291 36.7546 7.08594C37.5098 7.27755 38.2076 7.66001 38.7856 8.19918C39.3267 8.74037 39.7181 9.42195 39.919 10.173C40.172 11.1357 40.2901 12.1311 40.2697 13.1287V17.2941C40.2896 18.2957 40.1715 19.2951 39.919 20.262C39.7201 21.0176 39.3286 21.7037 38.7856 22.2482C38.2087 22.7865 37.5101 23.1651 36.7546 23.3491C35.7637 23.5934 34.7471 23.7073 33.7288 23.688H26.5083C25.4939 23.708 24.4811 23.5941 23.4945 23.3491C22.7423 23.1638 22.0473 22.7852 21.4733 22.2482C20.9294 21.7023 20.5343 21.0171 20.3281 20.262C20.0671 19.2966 19.945 18.2965 19.9654 17.2941V13.1287C19.9445 12.1303 20.0667 11.1342 20.3281 10.173C20.5363 9.42239 20.9313 8.74169 21.4733 8.19918C22.0484 7.66135 22.7426 7.27897 23.4945 7.08594C24.4798 6.83221 25.4932 6.71411 26.5083 6.73472H33.7288ZM23.542 17.0271C23.532 17.5606 23.5825 18.0935 23.6926 18.6148C23.7682 18.9978 23.9421 19.3526 24.1959 19.6417C24.4566 19.9074 24.7841 20.0918 25.1411 20.1737C25.6355 20.2906 26.142 20.3437 26.649 20.3319H33.5842C34.0905 20.3437 34.5963 20.2906 35.0901 20.1737C35.4478 20.0922 35.7761 19.9078 36.0373 19.6417C36.2905 19.3524 36.4636 18.9976 36.5386 18.6148C36.6504 18.0938 36.7017 17.5607 36.6912 17.0271V13.3957C36.7015 12.862 36.6503 12.329 36.5386 11.808C36.4636 11.4251 36.2905 11.0703 36.0373 10.781C35.7748 10.5231 35.4482 10.346 35.0941 10.2696C34.6002 10.1537 34.0945 10.1006 33.5881 10.1114H26.6529C26.146 10.1006 25.6396 10.1537 25.145 10.2696C24.7881 10.3515 24.4606 10.5359 24.1999 10.8015C23.946 11.0907 23.7722 11.4455 23.6966 11.8285C23.5866 12.3498 23.536 12.8827 23.546 13.4162L23.542 17.0271Z" fill="white"/>
<path d="M55.7748 6.73466C56.7939 6.71477 57.811 6.83285 58.8006 7.08588C59.5555 7.27829 60.2531 7.66065 60.8316 8.19912C61.3721 8.74081 61.7634 9.4222 61.965 10.173C62.218 11.1357 62.3361 12.1311 62.3157 13.1286V17.294C62.3356 18.2956 62.2175 19.295 61.965 20.262C61.7653 21.0172 61.3739 21.703 60.8316 22.2481C60.2537 22.786 59.5546 23.1646 58.7986 23.3491C57.8077 23.5934 56.7912 23.7072 55.7728 23.688H48.5464C47.532 23.7078 46.5192 23.5939 45.5325 23.3491C44.7807 23.1628 44.0859 22.7843 43.5114 22.2481C42.9681 21.7022 42.5736 21.0169 42.3681 20.262C42.1079 19.2964 41.9863 18.2963 42.0075 17.294V13.1286C41.9865 12.1302 42.1087 11.1341 42.3701 10.173C42.5776 9.42247 42.9719 8.74175 43.5134 8.19912C44.089 7.66206 44.783 7.27978 45.5345 7.08588C46.5193 6.83244 47.5319 6.71435 48.5464 6.73466H55.7748ZM45.588 17.027C45.578 17.5605 45.6285 18.0934 45.7386 18.6147C45.815 18.9974 45.9888 19.352 46.2419 19.6417C46.5031 19.9078 46.8314 20.0922 47.1891 20.1737C47.6828 20.2905 48.1886 20.3436 48.695 20.3318H55.6302C56.1372 20.3437 56.6437 20.2906 57.1381 20.1737C57.495 20.0917 57.8225 19.9074 58.0833 19.6417C58.3371 19.3525 58.511 18.9977 58.5866 18.6147C58.6974 18.0935 58.7486 17.5606 58.7391 17.027V13.3956C58.7485 12.862 58.6973 12.3291 58.5866 11.8079C58.511 11.4249 58.3371 11.0701 58.0833 10.7809C57.8213 10.5234 57.4954 10.3464 57.1421 10.2695C56.6475 10.1536 56.1411 10.1005 55.6341 10.1114H48.6989C48.1926 10.1005 47.6869 10.1536 47.193 10.2695C46.8353 10.351 46.5071 10.5354 46.2459 10.8015C45.9928 11.0912 45.819 11.4457 45.7426 11.8285C45.6326 12.3497 45.582 12.8826 45.592 13.4162L45.588 17.027Z" fill="white"/>
<path d="M82.2316 6.73535C82.5883 6.73535 82.7686 6.91405 82.7686 7.26732V9.64169C82.7788 9.71726 82.772 9.79426 82.7486 9.86663C82.7252 9.93899 82.686 10.0047 82.6339 10.0587C82.5819 10.1127 82.5184 10.1534 82.4486 10.1776C82.3788 10.2018 82.3045 10.2089 82.2316 10.1983H74.9001V23.1567C74.91 23.2289 74.9036 23.3026 74.8813 23.3718C74.8591 23.4411 74.8215 23.504 74.7717 23.5556C74.722 23.6072 74.6613 23.6461 74.5945 23.6692C74.5277 23.6923 74.4566 23.6989 74.3869 23.6887H71.8288C71.759 23.6993 71.6877 23.6929 71.6206 23.67C71.5536 23.647 71.4926 23.6082 71.4426 23.5565C71.3925 23.5049 71.3548 23.4418 71.3325 23.3724C71.3101 23.303 71.3036 23.2291 71.3136 23.1567V10.1983H63.9821C63.9091 10.2093 63.8346 10.2024 63.7645 10.1784C63.6944 10.1543 63.6307 10.1137 63.5784 10.0596C63.5261 10.0056 63.4867 9.93976 63.4632 9.86721C63.4397 9.79467 63.4329 9.71746 63.4432 9.64169V7.26732C63.4432 6.91405 63.6235 6.73535 63.9821 6.73535H82.2316Z" fill="white"/>
<path d="M120.219 6.73469C121.239 6.71445 122.258 6.83253 123.248 7.08592C124.004 7.27753 124.701 7.65999 125.279 8.19916C125.823 8.73961 126.216 9.42125 126.419 10.173C126.672 11.1357 126.79 12.1311 126.769 13.1286V17.2941C126.789 18.2956 126.671 19.295 126.419 20.262C126.22 21.0176 125.828 21.7036 125.285 22.2482C124.707 22.7873 124.006 23.1661 123.248 23.3491C122.257 23.5934 121.241 23.7073 120.223 23.688H112.998C111.984 23.7078 110.971 23.594 109.984 23.3491C109.232 23.1637 108.537 22.7851 107.963 22.2482C107.42 21.7018 107.025 21.0168 106.818 20.262C106.557 19.2965 106.435 18.2965 106.455 17.2941V13.1286C106.434 12.1303 106.556 11.1342 106.818 10.173C107.027 9.42271 107.422 8.74221 107.963 8.19916C108.538 7.66133 109.232 7.27894 109.984 7.08592C110.97 6.8323 111.983 6.71421 112.998 6.73469H120.219ZM110.032 17.027C110.022 17.5606 110.072 18.0935 110.182 18.6147C110.258 18.9978 110.432 19.3526 110.686 19.6417C110.946 19.9074 111.274 20.0917 111.631 20.1737C112.125 20.2906 112.632 20.3437 113.139 20.3318H120.074C120.58 20.3437 121.086 20.2906 121.58 20.1737C121.938 20.0922 122.266 19.9078 122.527 19.6417C122.78 19.352 122.954 18.9975 123.03 18.6147C123.14 18.0935 123.191 17.5606 123.181 17.027V13.3957C123.191 12.8621 123.14 12.3292 123.03 11.808C122.954 11.4252 122.78 11.0707 122.527 10.781C122.265 10.523 121.938 10.3459 121.584 10.2695C121.09 10.1537 120.584 10.1005 120.078 10.1114H113.143C112.636 10.1006 112.129 10.1537 111.635 10.2695C111.278 10.3515 110.95 10.5358 110.69 10.8015C110.436 11.0907 110.262 11.4455 110.186 11.8285C110.076 12.3498 110.026 12.8827 110.036 13.4162L110.032 17.027Z" fill="#191A1F"/>
<path d="M140.101 6.73495C141.196 6.717 142.289 6.85522 143.349 7.14574C144.173 7.36649 144.934 7.78912 145.568 8.37811C146.162 8.96386 146.6 9.69801 146.842 10.5101C147.13 11.4973 147.268 12.525 147.25 13.5561V16.8424C147.271 17.8853 147.133 18.925 146.842 19.9234C146.6 20.7346 146.161 21.468 145.568 22.0533C144.933 22.6412 144.172 23.0637 143.349 23.2857C142.288 23.5709 141.196 23.705 140.101 23.6841H129.165C128.697 23.6841 128.466 23.4418 128.466 22.957V7.46204C128.466 6.97731 128.697 6.73495 129.165 6.73495H140.101ZM132.04 20.0076C132.034 20.0503 132.038 20.0938 132.051 20.1348C132.064 20.1758 132.086 20.213 132.116 20.2435C132.145 20.274 132.181 20.297 132.221 20.3106C132.26 20.3242 132.302 20.328 132.343 20.3218H140.008C140.589 20.3342 141.17 20.2693 141.736 20.1288C142.158 20.0232 142.547 19.8059 142.865 19.4982C143.17 19.1761 143.384 18.7743 143.485 18.3357C143.62 17.7492 143.683 17.1474 143.671 16.5446V13.8745C143.683 13.271 143.62 12.6686 143.485 12.0814C143.383 11.645 143.169 11.2454 142.865 10.925C142.546 10.6167 142.156 10.3994 141.732 10.2944C141.166 10.1549 140.585 10.09 140.004 10.1014H132.343C132.141 10.1014 132.04 10.2143 132.04 10.4403V20.0076Z" fill="#191A1F"/>
<path d="M165.406 6.73469C165.765 6.73469 165.945 6.91339 165.945 7.26667V9.56915C165.945 9.92448 165.765 10.1011 165.406 10.1011H155.196C154.69 10.0903 154.184 10.1434 153.69 10.2593C153.329 10.3426 152.998 10.5266 152.731 10.7912C152.473 11.0771 152.299 11.4334 152.23 11.8182C152.127 12.3406 152.08 12.873 152.089 13.4059V13.638H165.29C165.359 13.6274 165.431 13.6338 165.498 13.6567C165.565 13.6796 165.626 13.7185 165.676 13.7701C165.726 13.8218 165.763 13.8848 165.786 13.9543C165.808 14.0237 165.815 14.0975 165.805 14.17V16.0843C165.815 16.1567 165.808 16.2306 165.786 16.3C165.763 16.3694 165.726 16.4325 165.676 16.4841C165.626 16.5358 165.565 16.5746 165.498 16.5976C165.431 16.6205 165.359 16.6269 165.29 16.6163H152.089V17.027C152.08 17.56 152.127 18.0924 152.23 18.6147C152.299 18.9996 152.473 19.3559 152.731 19.6417C152.998 19.9064 153.329 20.0903 153.69 20.1737C154.184 20.2906 154.689 20.3437 155.196 20.3318H165.406C165.765 20.3318 165.945 20.5105 165.945 20.8659V23.1663C165.945 23.5216 165.765 23.6983 165.406 23.6983H155.126C154.112 23.7181 153.099 23.6042 152.113 23.3594C151.36 23.174 150.665 22.7954 150.092 22.2585C149.548 21.712 149.153 21.027 148.946 20.2723C148.685 19.3068 148.563 18.3067 148.584 17.3043V13.1286C148.563 12.1303 148.685 11.1342 148.946 10.173C149.155 9.42271 149.55 8.74221 150.092 8.19916C150.667 7.66133 151.361 7.27894 152.113 7.08592C153.098 6.8323 154.111 6.71421 155.126 6.73469H165.406Z" fill="#191A1F"/>
<path d="M180.561 25.4319C180.618 25.4238 180.676 25.4294 180.73 25.4484C180.785 25.4674 180.835 25.4992 180.875 25.5414C180.916 25.5836 180.947 25.635 180.965 25.6915C180.983 25.7481 180.989 25.8083 180.981 25.8674V27.3175C180.989 27.3766 180.983 27.4368 180.965 27.4933C180.947 27.5499 180.916 27.6013 180.875 27.6435C180.835 27.6856 180.785 27.7175 180.73 27.7365C180.676 27.7555 180.618 27.7611 180.561 27.7529H166.659C166.602 27.7601 166.545 27.7538 166.491 27.7343C166.437 27.7148 166.389 27.6828 166.349 27.6407C166.309 27.5986 166.279 27.5475 166.261 27.4915C166.244 27.4354 166.239 27.3759 166.247 27.3175V25.8633C166.238 25.8041 166.243 25.7437 166.262 25.687C166.28 25.6302 166.31 25.5786 166.351 25.5363C166.392 25.494 166.442 25.4622 166.497 25.4434C166.551 25.4245 166.61 25.4192 166.667 25.4278L180.561 25.4319Z" fill="#191A1F"/>
</g>
<defs>
<clipPath id="clip0_8383_67996">
<rect width="183" height="30" fill="white"/>
</clipPath>
</defs>
</svg>
